<?xml version="1.0" encoding="UTF-8"?>
<svg id="a"
    xmlns="http://www.w3.org/2000/svg" viewBox="0 0 512 512" stroke="#7a8294" stroke-width="30">
    <path d="m478.16,148.78l-94.79-80.59c-5.23-4.45-13.28-.73-13.28,6.14v33.12h-191.03c-43.06,0-77.96,34.9-77.96,77.96v8.27c0,4.81,3.9,8.7,8.7,8.7h260.28v33.12c0,6.87,8.04,10.59,13.28,6.14l94.79-80.59c3.79-3.22,3.79-9.06,0-12.28Z" fill="none" stroke-linecap="round" stroke-linejoin="round"/>
    <path d="m402.19,309.62H141.91v-33.12c0-6.87-8.04-10.59-13.28-6.14l-94.79,80.59c-3.79,3.22-3.79,9.06,0,12.28l94.79,80.59c5.23,4.45,13.28.73,13.28-6.14v-33.12h191.03c43.06,0,77.96-34.9,77.96-77.96v-8.27c0-4.81-3.9-8.7-8.7-8.7Z" fill="none" stroke-linecap="round" stroke-linejoin="round"/>
</svg>