<?xml version="1.0" encoding="UTF-8"?><svg id="a" xmlns="http://www.w3.org/2000/svg" viewBox="0 0 512 512" stroke="#1a1a1a" stroke-width="15"><rect x="197.12" y="21.47" width="70.78" height="109.64" fill="none" stroke-linecap="round" stroke-linejoin="round"/><line x1="177.69" y1="131.12" x2="287.34" y2="131.12" fill="none" stroke-linecap="round" stroke-linejoin="round"/><rect x="67.83" y="212.31" width="149.2" height="149.2" fill="none" stroke-linecap="round" stroke-linejoin="round"/><circle cx="412.03" cy="406.56" r="83.97" fill="none" stroke-linecap="round" stroke-linejoin="round"/><circle cx="142.43" cy="262.49" r="19.78" fill="none" stroke-linecap="round" stroke-linejoin="round"/><path d="m132.37,304.6h18.04c22.6,0,40.94,18.35,40.94,40.94v15.96h-99.93v-15.96c0-22.6,18.35-40.94,40.94-40.94Z" fill="none" stroke-linecap="round" stroke-linejoin="round"/><circle cx="232.51" cy="54.95" r="9.89" fill="none" stroke-miterlimit="10"/><g><line x1="263.07" y1="216.47" x2="348.29" y2="216.47" fill="none" stroke-linecap="round" stroke-miterlimit="10"/><line x1="372.93" y1="216.47" x2="390.7" y2="216.47" fill="none" stroke-linecap="round" stroke-miterlimit="10"/></g><g><line x1="390.7" y1="256.46" x2="305.48" y2="256.46" fill="none" stroke-linecap="round" stroke-miterlimit="10"/><line x1="280.84" y1="256.46" x2="263.07" y2="256.46" fill="none" stroke-linecap="round" stroke-miterlimit="10"/></g><line x1="263.07" y1="295.64" x2="390.7" y2="295.64" fill="none" stroke-linecap="round" stroke-miterlimit="10"/><polyline points="372.89 406.29 399.93 432.11 451.17 380.39" fill="none" stroke-linecap="round" stroke-linejoin="round"/><path d="m328.06,406.56c0-46.37,37.59-83.97,83.97-83.97,13.28,0,25.83,3.09,37,8.58V119.08c0-10.98-8.9-19.89-19.89-19.89h-161.24v31.92h-70.78v-31.92H35.89c-10.98,0-19.89,8.9-19.89,19.89v272.51c0,10.98,8.9,19.89,19.89,19.89h292.33c-.09-1.63-.15-3.26-.15-4.91Z" fill="none" stroke-linecap="round" stroke-linejoin="round"/></svg>