<?xml version="1.0" encoding="UTF-8"?><svg id="a" xmlns="http://www.w3.org/2000/svg" viewBox="0 0 512 512" stroke="#1a1a1a" stroke-width="15"><circle cx="117.69" cy="154.37" r="51.84" fill="none" stroke-linecap="round" stroke-linejoin="round"/><rect x="65.63" y="389.63" width="380.74" height="58.1" rx="29.05" ry="29.05" fill="none" stroke-linecap="round" stroke-linejoin="round"/><circle cx="256" cy="41.92" r="25.92" fill="none" stroke-linecap="round" stroke-linejoin="round"/><path d="m347.17,210.29c0-50.35-40.82-91.17-91.17-91.17" fill="none" stroke-linecap="round" stroke-linejoin="round"/><path d="m256,496c26.66,0,48.27-21.61,48.27-48.27h-96.54c0,26.66,21.61,48.27,48.27,48.27Z" fill="none" stroke-linecap="round" stroke-linejoin="round"/><path d="m256,67.84h0c-41.6,0-78.87,18.42-104.18,47.51,10.86,9.5,17.72,23.45,17.72,39.01,0,28.56-23.09,51.72-51.62,51.84v183.42h276.16v-183.71c0-76.26-61.82-138.08-138.08-138.08Z" fill="none" stroke-linecap="round" stroke-linejoin="round"/></svg>