<?xml version="1.0" encoding="UTF-8"?>
<svg id="a"
    xmlns="http://www.w3.org/2000/svg" viewBox="0 0 512 512" stroke="#1a1a1a" stroke-width="15">
    <path d="m405.86,428.48v43.42c0,13.31-10.79,24.1-24.1,24.1h-251.53c-13.31,0-24.1-10.79-24.1-24.1v-43.42" fill="none" stroke-linecap="round" stroke-linejoin="round"/>
    <path d="m106.14,288.28v-36.57c0-13.31,10.79-24.1,24.1-24.1h251.53c13.31,0,24.1,10.79,24.1,24.1v36.57" fill="none" stroke-linecap="round" stroke-linejoin="round"/>
    <rect x="69.81" y="288.28" width="372.37" height="140.2" rx="15.69" ry="15.69" fill="none" stroke-linecap="round" stroke-linejoin="round"/>
    <path d="m131.05,226.23v-87.16c0-67.97,55.1-123.07,123.07-123.07h3.76c67.97,0,123.07,55.1,123.07,123.07v86.93" fill="none" stroke-linecap="round" stroke-linejoin="round"/>
    <path d="m167.21,227.61v-90.58c0-49.04,39.75-88.79,88.79-88.79h0c49.04,0,88.79,39.75,88.79,88.79v91.1" fill="none" stroke-linecap="round" stroke-linejoin="round"/>
    <g>
        <line x1="136.95" y1="330.26" x2="136.95" y2="386.51" fill="none" stroke-linecap="round" stroke-linejoin="round"/>
        <line x1="161.31" y1="344.32" x2="112.59" y2="372.44" fill="none" stroke-linecap="round" stroke-linejoin="round"/>
        <line x1="112.59" y1="344.32" x2="161.31" y2="372.44" fill="none" stroke-linecap="round" stroke-linejoin="round"/>
    </g>
    <g>
        <line x1="216.32" y1="330.26" x2="216.32" y2="386.51" fill="none" stroke-linecap="round" stroke-linejoin="round"/>
        <line x1="240.67" y1="344.32" x2="191.96" y2="372.44" fill="none" stroke-linecap="round" stroke-linejoin="round"/>
        <line x1="191.96" y1="344.32" x2="240.67" y2="372.44" fill="none" stroke-linecap="round" stroke-linejoin="round"/>
    </g>
    <g>
        <line x1="295.68" y1="330.26" x2="295.68" y2="386.51" fill="none" stroke-linecap="round" stroke-linejoin="round"/>
        <line x1="320.04" y1="344.32" x2="271.33" y2="372.44" fill="none" stroke-linecap="round" stroke-linejoin="round"/>
        <line x1="271.33" y1="344.32" x2="320.04" y2="372.44" fill="none" stroke-linecap="round" stroke-linejoin="round"/>
    </g>
    <g>
        <line x1="375.05" y1="330.26" x2="375.05" y2="386.51" fill="none" stroke-linecap="round" stroke-linejoin="round"/>
        <line x1="399.41" y1="344.32" x2="350.69" y2="372.44" fill="none" stroke-linecap="round" stroke-linejoin="round"/>
        <line x1="350.69" y1="344.32" x2="399.41" y2="372.44" fill="none" stroke-linecap="round" stroke-linejoin="round"/>
    </g>
</svg>