<?xml version="1.0" encoding="UTF-8"?><svg id="a" xmlns="http://www.w3.org/2000/svg" viewBox="0 0 512 512" stroke="#1a1a1a" stroke-width="15"><rect x="96.18" y="38.27" width="371.13" height="435.46" fill="none" stroke-linecap="round" stroke-linejoin="round"/><circle cx="281.75" cy="256" r="83.36" fill="none" stroke-linecap="round" stroke-linejoin="round"/><line x1="107.36" y1="85" x2="44.68" y2="85" fill="none" stroke-linecap="round" stroke-linejoin="round"/><line x1="107.36" y1="414.9" x2="44.68" y2="414.9" fill="none" stroke-linecap="round" stroke-linejoin="round"/><line x1="107.36" y1="126.24" x2="44.68" y2="126.24" fill="none" stroke-linecap="round" stroke-linejoin="round"/><line x1="107.36" y1="167.48" x2="44.68" y2="167.48" fill="none" stroke-linecap="round" stroke-linejoin="round"/><line x1="107.36" y1="208.71" x2="44.68" y2="208.71" fill="none" stroke-linecap="round" stroke-linejoin="round"/><line x1="107.36" y1="332.43" x2="44.68" y2="332.43" fill="none" stroke-linecap="round" stroke-linejoin="round"/><line x1="107.36" y1="373.66" x2="44.68" y2="373.66" fill="none" stroke-linecap="round" stroke-linejoin="round"/><line x1="107.36" y1="249.95" x2="44.68" y2="249.95" fill="none" stroke-linecap="round" stroke-linejoin="round"/><line x1="107.36" y1="291.19" x2="44.68" y2="291.19" fill="none" stroke-linecap="round" stroke-linejoin="round"/><polygon points="96.18 473.73 96.18 38.27 415.82 38.27 415.82 16 44.68 16 44.68 496 415.82 496 415.82 473.73 96.18 473.73" fill="none" stroke-linecap="round" stroke-linejoin="round"/><polyline points="242.97 256.04 269.76 281.62 320.53 230.38" fill="none" stroke-linecap="round" stroke-linejoin="round"/></svg>