<?xml version="1.0" encoding="UTF-8"?>
<svg id="a" xmlns="http://www.w3.org/2000/svg" viewBox="0 0 512 512" stroke="#1a1a1a" stroke-width="15">
<path d="m62.56,16h.42c21.82,0,39.54,17.72,39.54,39.54v77.86H23.02V55.54c0-21.82,17.72-39.54,39.54-39.54Z" fill="none" stroke-linecap="round" stroke-linejoin="round" />
<path d="m405.25,16H60.46c-20.68,0-37.44,16.76-37.44,37.44v73.49c0,3.57,2.9,6.47,6.47,6.47h66.55c3.57,0,6.47,2.9,6.47,6.47v309.84c0,25.57,20.73,46.29,46.29,46.29h0c25.57,0,46.29-20.73,46.29-46.29v-.05h247.58V53.44c0-20.68-16.76-37.44-37.44-37.44Z" fill="none" stroke-miterlimit="10" />
<path d="m437.45,449.66h51.53v.05c0,25.57-20.73,46.29-46.29,46.29H148.81" fill="none" stroke-miterlimit="10" /><g>
<line x1="195.68" y1="217.54" x2="306.93" y2="217.54" fill="none" stroke-linecap="round" stroke-miterlimit="10" />
<line x1="339.09" y1="217.54" x2="362.29" y2="217.54" fill="none" stroke-linecap="round" stroke-miterlimit="10" /></g><g>
<line x1="362.29" y1="269.74" x2="251.04" y2="269.74" fill="none" stroke-linecap="round" stroke-miterlimit="10" />
<line x1="218.88" y1="269.74" x2="195.68" y2="269.74" fill="none" stroke-linecap="round" stroke-miterlimit="10" /></g><g>
<line x1="362.29" y1="374.13" x2="251.04" y2="374.13" fill="none" stroke-linecap="round" stroke-miterlimit="10" />
<line x1="218.88" y1="374.13" x2="195.68" y2="374.13" fill="none" stroke-linecap="round" stroke-miterlimit="10" /></g>
<line x1="195.68" y1="320.88" x2="362.29" y2="320.88" fill="none" stroke-linecap="round" stroke-miterlimit="10" />
<path d="m250.83,125.89c.38.15.55.43.63.65s.14.55-.04.92c-2.19,4.47-1.43,9.7,1.92,13.32,3.36,3.62,8.39,4.64,12.83,2.6.37-.17.69-.09.89,0,.2.09.47.29.6.68,1.52,4.76,5.64,7.9,10.5,8.02.09,0,.19,0,.28,0,4.74,0,8.87-2.92,10.57-7.51.14-.39.42-.57.63-.65s.53-.14.89.05c4.34,2.25,9.41,1.48,12.93-1.98,3.52-3.46,4.51-8.64,2.52-13.21-.16-.38-.09-.71,0-.92.09-.21.28-.49.66-.62,4.62-1.57,7.67-5.81,7.79-10.82.11-5.01-2.75-9.4-7.29-11.18-.38-.15-.55-.43-.63-.65s-.14-.55.04-.92c2.19-4.47,1.43-9.7-1.92-13.32-3.36-3.62-8.39-4.64-12.83-2.6-.37.17-.69.1-.89,0-.2-.09-.47-.29-.6-.68-1.52-4.76-5.64-7.9-10.5-8.02-4.87-.1-9.12,2.83-10.85,7.51-.14.39-.42.57-.63.65-.21.08-.53.14-.89-.04-4.34-2.26-9.42-1.48-12.93,1.98-3.52,3.46-4.51,8.64-2.52,13.21.16.38.09.71,0,.92-.09.21-.28.49-.66.62-4.62,1.57-7.67,5.81-7.79,10.82-.11,5.01,2.75,9.4,7.29,11.18Z" fill="none" stroke-miterlimit="10" />
</svg>