<?xml version="1.0" encoding="UTF-8"?>
<svg id="a"
    xmlns="http://www.w3.org/2000/svg" viewBox="0 0 512 512" fill="#6A6F7B">
    <path id="b" d="m197.8,396.11c-1.51-3.32-4.83-5.45-8.47-5.43-3.56-.06-6.82,1.96-8.35,5.16l-6.4,12.79c-3.3,6.59-11.31,9.26-17.89,5.96-3.16-1.58-5.56-4.35-6.68-7.7l-14.12-42.07-8.84,26.57c-4.92,14.63-18.62,24.5-34.06,24.51h-10.41c-7.37,0-13.34-5.97-13.34-13.34s5.97-13.34,13.34-13.34h10.33c4.02,0,7.58-2.57,8.86-6.38l15.15-45.54c3.52-10.48,14.86-16.13,25.34-12.61,5.95,1.99,10.62,6.66,12.61,12.61l11.56,34.7c16.58-12.33,40.01-8.89,52.34,7.69.98,1.31,1.86,2.69,2.66,4.11,1.49,3,4.46,4.99,7.81,5.23v-68.37l106.67-105.9v-38.78h-113.25c-11.03-.03-19.96-8.97-19.99-19.99V42.67H35.99c-11.02-.02-19.97,8.89-19.99,19.91,0,.03,0,.05,0,.08v386.66c-.02,11.02,8.89,19.97,19.91,19.99.03,0,.05,0,.08,0h280c11.02.02,19.97-8.89,19.99-19.91,0-.03,0-.05,0-.08v-33.41h-106.67c-13.38-.19-25.54-7.83-31.51-19.81Zm138.18-251.85c0-5.3-2.09-10.38-5.83-14.12l-81.57-81.63c-3.75-3.74-8.83-5.83-14.12-5.83h-5.08v106.67h106.61v-5.08Zm-80,187.63v57.54h57.5l134.73-135.64-56.49-56.49-135.74,134.59Zm233.77-149.78l-26.55-26.55c-8.29-8.28-21.71-8.28-30,0l-22.72,22.7,56.49,56.49,22.78-22.6c8.3-8.27,8.32-21.69.05-29.99-.02-.02-.04-.04-.05-.05Z"/>
</svg>