<?xml version="1.0" encoding="UTF-8"?>
<svg id="a"
    xmlns="http://www.w3.org/2000/svg" viewBox="0 0 512 512" fill="#6A6F7B">
    <path d="m423.94,88.06c-44.86-44.86-104.5-69.56-167.94-69.56s-123.08,24.7-167.94,69.56S18.5,192.56,18.5,256s24.7,123.08,69.56,167.94c44.86,44.86,104.5,69.56,167.94,69.56s123.08-24.7,167.94-69.56c44.86-44.86,69.56-104.5,69.56-167.94s-24.7-123.08-69.56-167.94Zm-147.94,272.27c0,11.05-8.95,20-20,20s-20-8.95-20-20v-133.68c0-11.05,8.95-20,20-20s20,8.95,20,20v133.68Zm0-201.58c0,11.05-8.95,20-20,20s-20-8.95-20-20v-7.08c0-11.05,8.95-20,20-20s20,8.95,20,20v7.08Z"/>
</svg>