<?xml version="1.0" encoding="UTF-8"?>
<svg id="a"
    xmlns="http://www.w3.org/2000/svg" viewBox="0 0 512 512" fill="#345D9D">
    <g id="b">
        <path id="c" d="m64.8,176.46c-.32-37,18.69-71.49,50.16-90.97,1.77-1.05,2.35-3.34,1.29-5.1-.68-1.15-1.93-1.84-3.26-1.82h0c-44.63,1.61-81.16,36.02-85.42,80.47-7.41,2.29-12.2,9.46-11.48,17.18-.87,8.05,4.52,15.43,12.44,17.07,8.38,35.68,35.32,64.09,70.5,74.36h0c2.73.53,5.37-1.25,5.91-3.97.34-1.72-.24-3.48-1.53-4.67-23.7-21.02-37.68-50.89-38.61-82.56Z"/>
        <path id="d" d="m479.96,79.4c-1.15-3.12-2.43-6-3.69-8.87-5.92-13.86-14.44-26.46-25.09-37.12-10.56-10.83-25-17.02-40.12-17.18-10.59-.06-20.96,3.07-29.74,8.99-54.35,30.95-115.05,49.09-177.47,53.04-48.07,0-45.42.23-45.42.23-54.29,24.83-78.18,88.97-53.35,143.27,8.86,19.38,23.25,35.71,41.37,46.93,13.95,11.64,27.2,10.15,24.33,25.59-2.87,15.45-25.94,112.4-28.82,132.58-2.89,20.18-3.28,31.71,4.61,41.5,7.89,9.79,57.06,27.43,78.39,27.43s15.9-10.03,15.9-50.5-10.72-151.83,19.02-151.83c55.75,0,84.74,19.94,128.32,36.55,7.3,3.29,15.17,5.13,23.17,5.41,15.66-1.17,30.14-8.77,40.01-20.99,10.6-10.68,19.09-23.26,25.02-37.09,1.26-3,2.54-6,3.8-9.21,10.86-30.28,16.21-62.26,15.79-94.43.33-32.14-5.1-64.07-16.02-94.29Zm-30.66,181c-7.38,18.04-20.28,32.51-31.01,32.51s-20.53-14.41-27.87-32.51c-10-27.58-14.81-56.78-14.18-86.11-.63-29.41,4.17-58.68,14.18-86.34,7.38-18.04,17.18-28.82,27.79-28.82s23.4,10.95,30.89,28.82c22.21,55.33,22.29,117.08.23,172.47l-.03-.02Z"/>
    </g>
</svg>