<?xml version="1.0" encoding="UTF-8"?>
<svg id="a"
    xmlns="http://www.w3.org/2000/svg" viewBox="0 0 512 512" fill="#7a8294">
    <path id="b" d="m316.01,76.03c.01-33.14-26.85-60.02-59.99-60.03-33.14-.01-60.02,26.85-60.03,59.99-.01,33.14,26.85,60.02,59.99,60.03h.02c33.09-.09,59.9-26.89,60.01-59.99Zm0,359.98c.01-33.14-26.85-60.02-59.99-60.03-33.14-.01-60.02,26.85-60.03,59.99-.01,33.14,26.85,60.02,59.99,60.03h.02c33.09-.09,59.9-26.89,60.01-59.99Zm0-179.98c.01-33.14-26.85-60.02-59.99-60.03-33.14-.01-60.02,26.85-60.03,59.99-.01,33.14,26.85,60.02,59.99,60.03h.02c33.1-.09,59.91-26.91,60.01-60.01v.02Z"/>
</svg>